<?xml version="1.0" encoding="utf-8" standalone="no"?>
<!DOCTYPE svg PUBLIC "-//W3C//DTD SVG 1.1//EN"
  "http://www.w3.org/Graphics/SVG/1.1/DTD/svg11.dtd">
<svg xmlns:xlink="http://www.w3.org/1999/xlink" width="684pt" height="479.116875pt" viewBox="0 0 684 479.116875" xmlns="http://www.w3.org/2000/svg" version="1.1">
 <metadata>
  <rdf:RDF xmlns:dc="http://purl.org/dc/elements/1.1/" xmlns:cc="http://creativecommons.org/ns#" xmlns:rdf="http://www.w3.org/1999/02/22-rdf-syntax-ns#">
   <cc:Work>
    <dc:type rdf:resource="http://purl.org/dc/dcmitype/StillImage"/>
    <dc:date>2025-07-06T21:16:32.086601</dc:date>
    <dc:format>image/svg+xml</dc:format>
    <dc:creator>
     <cc:Agent>
      <dc:title>Matplotlib v3.10.3, https://matplotlib.org/</dc:title>
     </cc:Agent>
    </dc:creator>
   </cc:Work>
  </rdf:RDF>
 </metadata>
 <defs>
  <style type="text/css">*{stroke-linejoin: round; stroke-linecap: butt}</style>
 </defs>
 <g id="figure_1">
  <g id="patch_1">
   <path d="M 0 479.116875 
L 684 479.116875 
L 684 0 
L 0 0 
z
" style="fill: #0a0a0a"/>
  </g>
  <g id="axes_1">
   <g id="patch_2">
    <path d="M 74.16 94.924875 
C 83.039 94.924875 91.555534 92.588272 97.833935 88.429675 
C 104.112336 84.271078 107.64 78.630019 107.64 72.748875 
C 107.64 66.867731 104.112336 61.226672 97.833935 57.068075 
C 91.555534 52.909478 83.039 50.572875 74.16 50.572875 
C 65.281 50.572875 56.764466 52.909478 50.486065 57.068075 
C 44.207664 61.226672 40.68 66.867731 40.68 72.748875 
C 40.68 78.630019 44.207664 84.271078 50.486065 88.429675 
C 56.764466 92.588272 65.281 94.924875 74.16 94.924875 
z
" clip-path="url(#p663c10fdbc)" style="fill: #3498db; opacity: 0.8; stroke: #3498db; stroke-linejoin: miter"/>
   </g>
   <g id="patch_3">
    <path d="M 208.08 183.628875 
C 216.959 183.628875 225.475534 181.292272 231.753935 177.133675 
C 238.032336 172.975078 241.56 167.334019 241.56 161.452875 
C 241.56 155.571731 238.032336 149.930672 231.753935 145.772075 
C 225.475534 141.613478 216.959 139.276875 208.08 139.276875 
C 199.201 139.276875 190.684466 141.613478 184.406065 145.772075 
C 178.127664 149.930672 174.6 155.571731 174.6 161.452875 
C 174.6 167.334019 178.127664 172.975078 184.406065 177.133675 
C 190.684466 181.292272 199.201 183.628875 208.08 183.628875 
z
" clip-path="url(#p663c10fdbc)" style="fill: #2ecc71; opacity: 0.8; stroke: #2ecc71; stroke-linejoin: miter"/>
   </g>
   <g id="patch_4">
    <path d="M 141.12 272.332875 
C 149.999 272.332875 158.515534 269.996272 164.793935 265.837675 
C 171.072336 261.679078 174.6 256.038019 174.6 250.156875 
C 174.6 244.275731 171.072336 238.634672 164.793935 234.476075 
C 158.515534 230.317478 149.999 227.980875 141.12 227.980875 
C 132.241 227.980875 123.724466 230.317478 117.446065 234.476075 
C 111.167664 238.634672 107.64 244.275731 107.64 250.156875 
C 107.64 256.038019 111.167664 261.679078 117.446065 265.837675 
C 123.724466 269.996272 132.241 272.332875 141.12 272.332875 
z
" clip-path="url(#p663c10fdbc)" style="fill: #f1c40f; opacity: 0.8; stroke: #f1c40f; stroke-linejoin: miter"/>
   </g>
   <g id="patch_5">
    <path d="M 208.08 361.036875 
C 216.959 361.036875 225.475534 358.700272 231.753935 354.541675 
C 238.032336 350.383078 241.56 344.742019 241.56 338.860875 
C 241.56 332.979731 238.032336 327.338672 231.753935 323.180075 
C 225.475534 319.021478 216.959 316.684875 208.08 316.684875 
C 199.201 316.684875 190.684466 319.021478 184.406065 323.180075 
C 178.127664 327.338672 174.6 332.979731 174.6 338.860875 
C 174.6 344.742019 178.127664 350.383078 184.406065 354.541675 
C 190.684466 358.700272 199.201 361.036875 208.08 361.036875 
z
" clip-path="url(#p663c10fdbc)" style="fill: #e74c3c; opacity: 0.8; stroke: #e74c3c; stroke-linejoin: miter"/>
   </g>
   <g id="patch_6">
    <path d="M 275.04 272.332875 
C 283.919 272.332875 292.435534 269.996272 298.713935 265.837675 
C 304.992336 261.679078 308.52 256.038019 308.52 250.156875 
C 308.52 244.275731 304.992336 238.634672 298.713935 234.476075 
C 292.435534 230.317478 283.919 227.980875 275.04 227.980875 
C 266.161 227.980875 257.644466 230.317478 251.366065 234.476075 
C 245.087664 238.634672 241.56 244.275731 241.56 250.156875 
C 241.56 256.038019 245.087664 261.679078 251.366065 265.837675 
C 257.644466 269.996272 266.161 272.332875 275.04 272.332875 
z
" clip-path="url(#p663c10fdbc)" style="fill: #9b59b6; opacity: 0.8; stroke: #9b59b6; stroke-linejoin: miter"/>
   </g>
   <g id="patch_7">
    <path d="M 141.12 449.740875 
C 149.999 449.740875 158.515534 447.404272 164.793935 443.245675 
C 171.072336 439.087078 174.6 433.446019 174.6 427.564875 
C 174.6 421.683731 171.072336 416.042672 164.793935 411.884075 
C 158.515534 407.725478 149.999 405.388875 141.12 405.388875 
C 132.241 405.388875 123.724466 407.725478 117.446065 411.884075 
C 111.167664 416.042672 107.64 421.683731 107.64 427.564875 
C 107.64 433.446019 111.167664 439.087078 117.446065 443.245675 
C 123.724466 447.404272 132.241 449.740875 141.12 449.740875 
z
" clip-path="url(#p663c10fdbc)" style="fill: #34495e; opacity: 0.8; stroke: #34495e; stroke-linejoin: miter"/>
   </g>
   <g id="patch_8">
    <path d="M 208.08 449.740875 
C 216.959 449.740875 225.475534 447.404272 231.753935 443.245675 
C 238.032336 439.087078 241.56 433.446019 241.56 427.564875 
C 241.56 421.683731 238.032336 416.042672 231.753935 411.884075 
C 225.475534 407.725478 216.959 405.388875 208.08 405.388875 
C 199.201 405.388875 190.684466 407.725478 184.406065 411.884075 
C 178.127664 416.042672 174.6 421.683731 174.6 427.564875 
C 174.6 433.446019 178.127664 439.087078 184.406065 443.245675 
C 190.684466 447.404272 199.201 449.740875 208.08 449.740875 
z
" clip-path="url(#p663c10fdbc)" style="fill: #34495e; opacity: 0.8; stroke: #34495e; stroke-linejoin: miter"/>
   </g>
   <g id="patch_9">
    <path d="M 275.04 449.740875 
C 283.919 449.740875 292.435534 447.404272 298.713935 443.245675 
C 304.992336 439.087078 308.52 433.446019 308.52 427.564875 
C 308.52 421.683731 304.992336 416.042672 298.713935 411.884075 
C 292.435534 407.725478 283.919 405.388875 275.04 405.388875 
C 266.161 405.388875 257.644466 407.725478 251.366065 411.884075 
C 245.087664 416.042672 241.56 421.683731 241.56 427.564875 
C 241.56 433.446019 245.087664 439.087078 251.366065 443.245675 
C 257.644466 447.404272 266.161 449.740875 275.04 449.740875 
z
" clip-path="url(#p663c10fdbc)" style="fill: #34495e; opacity: 0.8; stroke: #34495e; stroke-linejoin: miter"/>
   </g>
   <g id="patch_10">
    <path d="M 408.96 272.332875 
C 417.839 272.332875 426.355534 269.996272 432.633935 265.837675 
C 438.912336 261.679078 442.44 256.038019 442.44 250.156875 
C 442.44 244.275731 438.912336 238.634672 432.633935 234.476075 
C 426.355534 230.317478 417.839 227.980875 408.96 227.980875 
C 400.081 227.980875 391.564466 230.317478 385.286065 234.476075 
C 379.007664 238.634672 375.48 244.275731 375.48 250.156875 
C 375.48 256.038019 379.007664 261.679078 385.286065 265.837675 
C 391.564466 269.996272 400.081 272.332875 408.96 272.332875 
z
" clip-path="url(#p663c10fdbc)" style="fill: #e67e22; opacity: 0.8; stroke: #e67e22; stroke-linejoin: miter"/>
   </g>
   <g id="patch_11">
    <path d="M 475.92 361.036875 
C 484.799 361.036875 493.315534 358.700272 499.593935 354.541675 
C 505.872336 350.383078 509.4 344.742019 509.4 338.860875 
C 509.4 332.979731 505.872336 327.338672 499.593935 323.180075 
C 493.315534 319.021478 484.799 316.684875 475.92 316.684875 
C 467.041 316.684875 458.524466 319.021478 452.246065 323.180075 
C 445.967664 327.338672 442.44 332.979731 442.44 338.860875 
C 442.44 344.742019 445.967664 350.383078 452.246065 354.541675 
C 458.524466 358.700272 467.041 361.036875 475.92 361.036875 
z
" clip-path="url(#p663c10fdbc)" style="fill: #16a085; opacity: 0.8; stroke: #16a085; stroke-linejoin: miter"/>
   </g>
   <g id="patch_12">
    <path d="M 542.88 272.332875 
C 551.759 272.332875 560.275534 269.996272 566.553935 265.837675 
C 572.832336 261.679078 576.36 256.038019 576.36 250.156875 
C 576.36 244.275731 572.832336 238.634672 566.553935 234.476075 
C 560.275534 230.317478 551.759 227.980875 542.88 227.980875 
C 534.001 227.980875 525.484466 230.317478 519.206065 234.476075 
C 512.927664 238.634672 509.4 244.275731 509.4 250.156875 
C 509.4 256.038019 512.927664 261.679078 519.206065 265.837675 
C 525.484466 269.996272 534.001 272.332875 542.88 272.332875 
z
" clip-path="url(#p663c10fdbc)" style="fill: #8e44ad; opacity: 0.8; stroke: #8e44ad; stroke-linejoin: miter"/>
   </g>
   <g id="patch_13">
    <path d="M 208.08 161.452875 
L 193.875639 158.316715 
L 198.136947 155.494171 
L 73.686521 73.062491 
L 74.633479 72.435259 
L 199.083905 154.866939 
L 203.345213 152.044395 
z
" clip-path="url(#p663c10fdbc)" style="fill: #3498db; opacity: 0.7; stroke: #3498db; stroke-linejoin: miter"/>
   </g>
   <g id="patch_14">
    <path d="M 141.12 250.156875 
L 141.12 240.239466 
L 146.659903 242.074187 
L 207.630819 161.304114 
L 208.529181 161.601636 
L 147.558266 242.371709 
L 153.098169 244.20643 
z
" clip-path="url(#p663c10fdbc)" style="fill: #2ecc71; opacity: 0.7; stroke: #2ecc71; stroke-linejoin: miter"/>
   </g>
   <g id="patch_15">
    <path d="M 208.08 338.860875 
L 201.384 329.990475 
L 207.5778 329.990475 
L 207.5778 161.452875 
L 208.5822 161.452875 
L 208.5822 329.990475 
L 214.776 329.990475 
z
" clip-path="url(#p663c10fdbc)" style="fill: #2ecc71; opacity: 0.7; stroke: #2ecc71; stroke-linejoin: miter"/>
   </g>
   <g id="patch_16">
    <path d="M 275.04 250.156875 
L 263.061831 244.20643 
L 268.601734 242.371709 
L 207.630819 161.601636 
L 208.529181 161.304114 
L 269.500097 242.074187 
L 275.04 240.239466 
z
" clip-path="url(#p663c10fdbc)" style="fill: #2ecc71; opacity: 0.7; stroke: #2ecc71; stroke-linejoin: miter"/>
   </g>
   <g id="patch_17">
    <path d="M 141.12 427.564875 
L 134.424 418.694475 
L 140.7852 418.694475 
L 140.7852 250.156875 
L 141.4548 250.156875 
L 141.4548 418.694475 
L 147.816 418.694475 
z
" clip-path="url(#p663c10fdbc)" style="fill: #f1c40f; opacity: 0.7; stroke: #f1c40f; stroke-linejoin: miter"/>
   </g>
   <g id="patch_18">
    <path d="M 208.08 427.564875 
L 201.384 418.694475 
L 207.7452 418.694475 
L 207.7452 338.860875 
L 208.4148 338.860875 
L 208.4148 418.694475 
L 214.776 418.694475 
z
" clip-path="url(#p663c10fdbc)" style="fill: #e74c3c; opacity: 0.7; stroke: #e74c3c; stroke-linejoin: miter"/>
   </g>
   <g id="patch_19">
    <path d="M 275.04 427.564875 
L 268.344 418.694475 
L 274.7052 418.694475 
L 274.7052 250.156875 
L 275.3748 250.156875 
L 275.3748 418.694475 
L 281.736 418.694475 
z
" clip-path="url(#p663c10fdbc)" style="fill: #9b59b6; opacity: 0.7; stroke: #9b59b6; stroke-linejoin: miter"/>
   </g>
   <g id="patch_20">
    <path d="M 408.96 250.156875 
L 394.10291 248.926772 
L 397.538612 245.513236 
L 207.80143 161.729648 
L 208.35857 161.176102 
L 398.095753 244.959689 
L 401.531455 241.546153 
z
" clip-path="url(#p663c10fdbc)" style="fill: #2ecc71; opacity: 0.7; stroke: #2ecc71; stroke-linejoin: miter"/>
   </g>
   <g id="patch_21">
    <path d="M 475.92 338.860875 
L 461.06291 337.630772 
L 464.591469 334.124978 
L 274.854286 250.34139 
L 275.225714 249.97236 
L 464.962896 333.755947 
L 468.491455 330.250153 
z
" clip-path="url(#p663c10fdbc)" style="fill: #9b59b6; opacity: 0.7; stroke: #9b59b6; stroke-linejoin: miter"/>
   </g>
   <g id="patch_22">
    <path d="M 542.88 250.156875 
L 529.488 254.592075 
L 529.488 250.378635 
L 141.12 250.378635 
L 141.12 249.935115 
L 529.488 249.935115 
L 529.488 245.721675 
z
" clip-path="url(#p663c10fdbc)" style="fill: #f1c40f; opacity: 0.7; stroke: #f1c40f; stroke-linejoin: miter"/>
   </g>
   <g id="patch_23">
    <path d="M 542.88 250.156875 
L 529.488 254.592075 
L 529.488 250.378635 
L 275.04 250.378635 
L 275.04 249.935115 
L 529.488 249.935115 
L 529.488 245.721675 
z
" clip-path="url(#p663c10fdbc)" style="fill: #9b59b6; opacity: 0.7; stroke: #9b59b6; stroke-linejoin: miter"/>
   </g>
   <g id="text_1">
    <!-- Client -->
    <g style="fill: #ffffff" transform="translate(59.685 110.98985) scale(0.1 -0.1)">
     <defs>
      <path id="DejaVuSans-43" d="M 4122 4306 
L 4122 3641 
Q 3803 3938 3442 4084 
Q 3081 4231 2675 4231 
Q 1875 4231 1450 3742 
Q 1025 3253 1025 2328 
Q 1025 1406 1450 917 
Q 1875 428 2675 428 
Q 3081 428 3442 575 
Q 3803 722 4122 1019 
L 4122 359 
Q 3791 134 3420 21 
Q 3050 -91 2638 -91 
Q 1578 -91 968 557 
Q 359 1206 359 2328 
Q 359 3453 968 4101 
Q 1578 4750 2638 4750 
Q 3056 4750 3426 4639 
Q 3797 4528 4122 4306 
z
" transform="scale(0.015625)"/>
      <path id="DejaVuSans-6c" d="M 603 4863 
L 1178 4863 
L 1178 0 
L 603 0 
L 603 4863 
z
" transform="scale(0.015625)"/>
      <path id="DejaVuSans-69" d="M 603 3500 
L 1178 3500 
L 1178 0 
L 603 0 
L 603 3500 
z
M 603 4863 
L 1178 4863 
L 1178 4134 
L 603 4134 
L 603 4863 
z
" transform="scale(0.015625)"/>
      <path id="DejaVuSans-65" d="M 3597 1894 
L 3597 1613 
L 953 1613 
Q 991 1019 1311 708 
Q 1631 397 2203 397 
Q 2534 397 2845 478 
Q 3156 559 3463 722 
L 3463 178 
Q 3153 47 2828 -22 
Q 2503 -91 2169 -91 
Q 1331 -91 842 396 
Q 353 884 353 1716 
Q 353 2575 817 3079 
Q 1281 3584 2069 3584 
Q 2775 3584 3186 3129 
Q 3597 2675 3597 1894 
z
M 3022 2063 
Q 3016 2534 2758 2815 
Q 2500 3097 2075 3097 
Q 1594 3097 1305 2825 
Q 1016 2553 972 2059 
L 3022 2063 
z
" transform="scale(0.015625)"/>
      <path id="DejaVuSans-6e" d="M 3513 2113 
L 3513 0 
L 2938 0 
L 2938 2094 
Q 2938 2591 2744 2837 
Q 2550 3084 2163 3084 
Q 1697 3084 1428 2787 
Q 1159 2491 1159 1978 
L 1159 0 
L 581 0 
L 581 3500 
L 1159 3500 
L 1159 2956 
Q 1366 3272 1645 3428 
Q 1925 3584 2291 3584 
Q 2894 3584 3203 3211 
Q 3513 2838 3513 2113 
z
" transform="scale(0.015625)"/>
      <path id="DejaVuSans-74" d="M 1172 4494 
L 1172 3500 
L 2356 3500 
L 2356 3053 
L 1172 3053 
L 1172 1153 
Q 1172 725 1289 603 
Q 1406 481 1766 481 
L 2356 481 
L 2356 0 
L 1766 0 
Q 1100 0 847 248 
Q 594 497 594 1153 
L 594 3053 
L 172 3053 
L 172 3500 
L 594 3500 
L 594 4494 
L 1172 4494 
z
" transform="scale(0.015625)"/>
     </defs>
     <use xlink:href="#DejaVuSans-43"/>
     <use xlink:href="#DejaVuSans-6c" transform="translate(69.824219 0)"/>
     <use xlink:href="#DejaVuSans-69" transform="translate(97.607422 0)"/>
     <use xlink:href="#DejaVuSans-65" transform="translate(125.390625 0)"/>
     <use xlink:href="#DejaVuSans-6e" transform="translate(186.914062 0)"/>
     <use xlink:href="#DejaVuSans-74" transform="translate(250.292969 0)"/>
    </g>
   </g>
   <g id="text_2">
    <!-- API Gateway -->
    <g style="fill: #ffffff" transform="translate(176.493281 199.69385) scale(0.1 -0.1)">
     <defs>
      <path id="DejaVuSans-41" d="M 2188 4044 
L 1331 1722 
L 3047 1722 
L 2188 4044 
z
M 1831 4666 
L 2547 4666 
L 4325 0 
L 3669 0 
L 3244 1197 
L 1141 1197 
L 716 0 
L 50 0 
L 1831 4666 
z
" transform="scale(0.015625)"/>
      <path id="DejaVuSans-50" d="M 1259 4147 
L 1259 2394 
L 2053 2394 
Q 2494 2394 2734 2622 
Q 2975 2850 2975 3272 
Q 2975 3691 2734 3919 
Q 2494 4147 2053 4147 
L 1259 4147 
z
M 628 4666 
L 2053 4666 
Q 2838 4666 3239 4311 
Q 3641 3956 3641 3272 
Q 3641 2581 3239 2228 
Q 2838 1875 2053 1875 
L 1259 1875 
L 1259 0 
L 628 0 
L 628 4666 
z
" transform="scale(0.015625)"/>
      <path id="DejaVuSans-49" d="M 628 4666 
L 1259 4666 
L 1259 0 
L 628 0 
L 628 4666 
z
" transform="scale(0.015625)"/>
      <path id="DejaVuSans-20" transform="scale(0.015625)"/>
      <path id="DejaVuSans-47" d="M 3809 666 
L 3809 1919 
L 2778 1919 
L 2778 2438 
L 4434 2438 
L 4434 434 
Q 4069 175 3628 42 
Q 3188 -91 2688 -91 
Q 1594 -91 976 548 
Q 359 1188 359 2328 
Q 359 3472 976 4111 
Q 1594 4750 2688 4750 
Q 3144 4750 3555 4637 
Q 3966 4525 4313 4306 
L 4313 3634 
Q 3963 3931 3569 4081 
Q 3175 4231 2741 4231 
Q 1884 4231 1454 3753 
Q 1025 3275 1025 2328 
Q 1025 1384 1454 906 
Q 1884 428 2741 428 
Q 3075 428 3337 486 
Q 3600 544 3809 666 
z
" transform="scale(0.015625)"/>
      <path id="DejaVuSans-61" d="M 2194 1759 
Q 1497 1759 1228 1600 
Q 959 1441 959 1056 
Q 959 750 1161 570 
Q 1363 391 1709 391 
Q 2188 391 2477 730 
Q 2766 1069 2766 1631 
L 2766 1759 
L 2194 1759 
z
M 3341 1997 
L 3341 0 
L 2766 0 
L 2766 531 
Q 2569 213 2275 61 
Q 1981 -91 1556 -91 
Q 1019 -91 701 211 
Q 384 513 384 1019 
Q 384 1609 779 1909 
Q 1175 2209 1959 2209 
L 2766 2209 
L 2766 2266 
Q 2766 2663 2505 2880 
Q 2244 3097 1772 3097 
Q 1472 3097 1187 3025 
Q 903 2953 641 2809 
L 641 3341 
Q 956 3463 1253 3523 
Q 1550 3584 1831 3584 
Q 2591 3584 2966 3190 
Q 3341 2797 3341 1997 
z
" transform="scale(0.015625)"/>
      <path id="DejaVuSans-77" d="M 269 3500 
L 844 3500 
L 1563 769 
L 2278 3500 
L 2956 3500 
L 3675 769 
L 4391 3500 
L 4966 3500 
L 4050 0 
L 3372 0 
L 2619 2869 
L 1863 0 
L 1184 0 
L 269 3500 
z
" transform="scale(0.015625)"/>
      <path id="DejaVuSans-79" d="M 2059 -325 
Q 1816 -950 1584 -1140 
Q 1353 -1331 966 -1331 
L 506 -1331 
L 506 -850 
L 844 -850 
Q 1081 -850 1212 -737 
Q 1344 -625 1503 -206 
L 1606 56 
L 191 3500 
L 800 3500 
L 1894 763 
L 2988 3500 
L 3597 3500 
L 2059 -325 
z
" transform="scale(0.015625)"/>
     </defs>
     <use xlink:href="#DejaVuSans-41"/>
     <use xlink:href="#DejaVuSans-50" transform="translate(68.408203 0)"/>
     <use xlink:href="#DejaVuSans-49" transform="translate(128.710938 0)"/>
     <use xlink:href="#DejaVuSans-20" transform="translate(158.203125 0)"/>
     <use xlink:href="#DejaVuSans-47" transform="translate(189.990234 0)"/>
     <use xlink:href="#DejaVuSans-61" transform="translate(267.480469 0)"/>
     <use xlink:href="#DejaVuSans-74" transform="translate(328.759766 0)"/>
     <use xlink:href="#DejaVuSans-65" transform="translate(367.96875 0)"/>
     <use xlink:href="#DejaVuSans-77" transform="translate(429.492188 0)"/>
     <use xlink:href="#DejaVuSans-61" transform="translate(511.279297 0)"/>
     <use xlink:href="#DejaVuSans-79" transform="translate(572.558594 0)"/>
    </g>
   </g>
   <g id="text_3">
    <!-- Chat Service -->
    <g style="fill: #ffffff" transform="translate(109.366094 288.39785) scale(0.1 -0.1)">
     <defs>
      <path id="DejaVuSans-68" d="M 3513 2113 
L 3513 0 
L 2938 0 
L 2938 2094 
Q 2938 2591 2744 2837 
Q 2550 3084 2163 3084 
Q 1697 3084 1428 2787 
Q 1159 2491 1159 1978 
L 1159 0 
L 581 0 
L 581 4863 
L 1159 4863 
L 1159 2956 
Q 1366 3272 1645 3428 
Q 1925 3584 2291 3584 
Q 2894 3584 3203 3211 
Q 3513 2838 3513 2113 
z
" transform="scale(0.015625)"/>
      <path id="DejaVuSans-53" d="M 3425 4513 
L 3425 3897 
Q 3066 4069 2747 4153 
Q 2428 4238 2131 4238 
Q 1616 4238 1336 4038 
Q 1056 3838 1056 3469 
Q 1056 3159 1242 3001 
Q 1428 2844 1947 2747 
L 2328 2669 
Q 3034 2534 3370 2195 
Q 3706 1856 3706 1288 
Q 3706 609 3251 259 
Q 2797 -91 1919 -91 
Q 1588 -91 1214 -16 
Q 841 59 441 206 
L 441 856 
Q 825 641 1194 531 
Q 1563 422 1919 422 
Q 2459 422 2753 634 
Q 3047 847 3047 1241 
Q 3047 1584 2836 1778 
Q 2625 1972 2144 2069 
L 1759 2144 
Q 1053 2284 737 2584 
Q 422 2884 422 3419 
Q 422 4038 858 4394 
Q 1294 4750 2059 4750 
Q 2388 4750 2728 4690 
Q 3069 4631 3425 4513 
z
" transform="scale(0.015625)"/>
      <path id="DejaVuSans-72" d="M 2631 2963 
Q 2534 3019 2420 3045 
Q 2306 3072 2169 3072 
Q 1681 3072 1420 2755 
Q 1159 2438 1159 1844 
L 1159 0 
L 581 0 
L 581 3500 
L 1159 3500 
L 1159 2956 
Q 1341 3275 1631 3429 
Q 1922 3584 2338 3584 
Q 2397 3584 2469 3576 
Q 2541 3569 2628 3553 
L 2631 2963 
z
" transform="scale(0.015625)"/>
      <path id="DejaVuSans-76" d="M 191 3500 
L 800 3500 
L 1894 563 
L 2988 3500 
L 3597 3500 
L 2284 0 
L 1503 0 
L 191 3500 
z
" transform="scale(0.015625)"/>
      <path id="DejaVuSans-63" d="M 3122 3366 
L 3122 2828 
Q 2878 2963 2633 3030 
Q 2388 3097 2138 3097 
Q 1578 3097 1268 2742 
Q 959 2388 959 1747 
Q 959 1106 1268 751 
Q 1578 397 2138 397 
Q 2388 397 2633 464 
Q 2878 531 3122 666 
L 3122 134 
Q 2881 22 2623 -34 
Q 2366 -91 2075 -91 
Q 1284 -91 818 406 
Q 353 903 353 1747 
Q 353 2603 823 3093 
Q 1294 3584 2113 3584 
Q 2378 3584 2631 3529 
Q 2884 3475 3122 3366 
z
" transform="scale(0.015625)"/>
     </defs>
     <use xlink:href="#DejaVuSans-43"/>
     <use xlink:href="#DejaVuSans-68" transform="translate(69.824219 0)"/>
     <use xlink:href="#DejaVuSans-61" transform="translate(133.203125 0)"/>
     <use xlink:href="#DejaVuSans-74" transform="translate(194.482422 0)"/>
     <use xlink:href="#DejaVuSans-20" transform="translate(233.691406 0)"/>
     <use xlink:href="#DejaVuSans-53" transform="translate(265.478516 0)"/>
     <use xlink:href="#DejaVuSans-65" transform="translate(328.955078 0)"/>
     <use xlink:href="#DejaVuSans-72" transform="translate(390.478516 0)"/>
     <use xlink:href="#DejaVuSans-76" transform="translate(431.591797 0)"/>
     <use xlink:href="#DejaVuSans-69" transform="translate(490.771484 0)"/>
     <use xlink:href="#DejaVuSans-63" transform="translate(518.554688 0)"/>
     <use xlink:href="#DejaVuSans-65" transform="translate(573.535156 0)"/>
    </g>
   </g>
   <g id="text_4">
    <!-- Code Service -->
    <g style="fill: #ffffff" transform="translate(175.208906 377.10185) scale(0.1 -0.1)">
     <defs>
      <path id="DejaVuSans-6f" d="M 1959 3097 
Q 1497 3097 1228 2736 
Q 959 2375 959 1747 
Q 959 1119 1226 758 
Q 1494 397 1959 397 
Q 2419 397 2687 759 
Q 2956 1122 2956 1747 
Q 2956 2369 2687 2733 
Q 2419 3097 1959 3097 
z
M 1959 3584 
Q 2709 3584 3137 3096 
Q 3566 2609 3566 1747 
Q 3566 888 3137 398 
Q 2709 -91 1959 -91 
Q 1206 -91 779 398 
Q 353 888 353 1747 
Q 353 2609 779 3096 
Q 1206 3584 1959 3584 
z
" transform="scale(0.015625)"/>
      <path id="DejaVuSans-64" d="M 2906 2969 
L 2906 4863 
L 3481 4863 
L 3481 0 
L 2906 0 
L 2906 525 
Q 2725 213 2448 61 
Q 2172 -91 1784 -91 
Q 1150 -91 751 415 
Q 353 922 353 1747 
Q 353 2572 751 3078 
Q 1150 3584 1784 3584 
Q 2172 3584 2448 3432 
Q 2725 3281 2906 2969 
z
M 947 1747 
Q 947 1113 1208 752 
Q 1469 391 1925 391 
Q 2381 391 2643 752 
Q 2906 1113 2906 1747 
Q 2906 2381 2643 2742 
Q 2381 3103 1925 3103 
Q 1469 3103 1208 2742 
Q 947 2381 947 1747 
z
" transform="scale(0.015625)"/>
     </defs>
     <use xlink:href="#DejaVuSans-43"/>
     <use xlink:href="#DejaVuSans-6f" transform="translate(69.824219 0)"/>
     <use xlink:href="#DejaVuSans-64" transform="translate(131.005859 0)"/>
     <use xlink:href="#DejaVuSans-65" transform="translate(194.482422 0)"/>
     <use xlink:href="#DejaVuSans-20" transform="translate(256.005859 0)"/>
     <use xlink:href="#DejaVuSans-53" transform="translate(287.792969 0)"/>
     <use xlink:href="#DejaVuSans-65" transform="translate(351.269531 0)"/>
     <use xlink:href="#DejaVuSans-72" transform="translate(412.792969 0)"/>
     <use xlink:href="#DejaVuSans-76" transform="translate(453.90625 0)"/>
     <use xlink:href="#DejaVuSans-69" transform="translate(513.085938 0)"/>
     <use xlink:href="#DejaVuSans-63" transform="translate(540.869141 0)"/>
     <use xlink:href="#DejaVuSans-65" transform="translate(595.849609 0)"/>
    </g>
   </g>
   <g id="text_5">
    <!-- Image Service -->
    <g style="fill: #ffffff" transform="translate(239.310313 288.39785) scale(0.1 -0.1)">
     <defs>
      <path id="DejaVuSans-6d" d="M 3328 2828 
Q 3544 3216 3844 3400 
Q 4144 3584 4550 3584 
Q 5097 3584 5394 3201 
Q 5691 2819 5691 2113 
L 5691 0 
L 5113 0 
L 5113 2094 
Q 5113 2597 4934 2840 
Q 4756 3084 4391 3084 
Q 3944 3084 3684 2787 
Q 3425 2491 3425 1978 
L 3425 0 
L 2847 0 
L 2847 2094 
Q 2847 2600 2669 2842 
Q 2491 3084 2119 3084 
Q 1678 3084 1418 2786 
Q 1159 2488 1159 1978 
L 1159 0 
L 581 0 
L 581 3500 
L 1159 3500 
L 1159 2956 
Q 1356 3278 1631 3431 
Q 1906 3584 2284 3584 
Q 2666 3584 2933 3390 
Q 3200 3197 3328 2828 
z
" transform="scale(0.015625)"/>
      <path id="DejaVuSans-67" d="M 2906 1791 
Q 2906 2416 2648 2759 
Q 2391 3103 1925 3103 
Q 1463 3103 1205 2759 
Q 947 2416 947 1791 
Q 947 1169 1205 825 
Q 1463 481 1925 481 
Q 2391 481 2648 825 
Q 2906 1169 2906 1791 
z
M 3481 434 
Q 3481 -459 3084 -895 
Q 2688 -1331 1869 -1331 
Q 1566 -1331 1297 -1286 
Q 1028 -1241 775 -1147 
L 775 -588 
Q 1028 -725 1275 -790 
Q 1522 -856 1778 -856 
Q 2344 -856 2625 -561 
Q 2906 -266 2906 331 
L 2906 616 
Q 2728 306 2450 153 
Q 2172 0 1784 0 
Q 1141 0 747 490 
Q 353 981 353 1791 
Q 353 2603 747 3093 
Q 1141 3584 1784 3584 
Q 2172 3584 2450 3431 
Q 2728 3278 2906 2969 
L 2906 3500 
L 3481 3500 
L 3481 434 
z
" transform="scale(0.015625)"/>
     </defs>
     <use xlink:href="#DejaVuSans-49"/>
     <use xlink:href="#DejaVuSans-6d" transform="translate(29.492188 0)"/>
     <use xlink:href="#DejaVuSans-61" transform="translate(126.904297 0)"/>
     <use xlink:href="#DejaVuSans-67" transform="translate(188.183594 0)"/>
     <use xlink:href="#DejaVuSans-65" transform="translate(251.660156 0)"/>
     <use xlink:href="#DejaVuSans-20" transform="translate(313.183594 0)"/>
     <use xlink:href="#DejaVuSans-53" transform="translate(344.970703 0)"/>
     <use xlink:href="#DejaVuSans-65" transform="translate(408.447266 0)"/>
     <use xlink:href="#DejaVuSans-72" transform="translate(469.970703 0)"/>
     <use xlink:href="#DejaVuSans-76" transform="translate(511.083984 0)"/>
     <use xlink:href="#DejaVuSans-69" transform="translate(570.263672 0)"/>
     <use xlink:href="#DejaVuSans-63" transform="translate(598.046875 0)"/>
     <use xlink:href="#DejaVuSans-65" transform="translate(653.027344 0)"/>
    </g>
   </g>
   <g id="text_6">
    <!-- Chat DB -->
    <g style="fill: #ffffff" transform="translate(120.566094 465.80585) scale(0.1 -0.1)">
     <defs>
      <path id="DejaVuSans-44" d="M 1259 4147 
L 1259 519 
L 2022 519 
Q 2988 519 3436 956 
Q 3884 1394 3884 2338 
Q 3884 3275 3436 3711 
Q 2988 4147 2022 4147 
L 1259 4147 
z
M 628 4666 
L 1925 4666 
Q 3281 4666 3915 4102 
Q 4550 3538 4550 2338 
Q 4550 1131 3912 565 
Q 3275 0 1925 0 
L 628 0 
L 628 4666 
z
" transform="scale(0.015625)"/>
      <path id="DejaVuSans-42" d="M 1259 2228 
L 1259 519 
L 2272 519 
Q 2781 519 3026 730 
Q 3272 941 3272 1375 
Q 3272 1813 3026 2020 
Q 2781 2228 2272 2228 
L 1259 2228 
z
M 1259 4147 
L 1259 2741 
L 2194 2741 
Q 2656 2741 2882 2914 
Q 3109 3088 3109 3444 
Q 3109 3797 2882 3972 
Q 2656 4147 2194 4147 
L 1259 4147 
z
M 628 4666 
L 2241 4666 
Q 2963 4666 3353 4366 
Q 3744 4066 3744 3513 
Q 3744 3084 3544 2831 
Q 3344 2578 2956 2516 
Q 3422 2416 3680 2098 
Q 3938 1781 3938 1306 
Q 3938 681 3513 340 
Q 3088 0 2303 0 
L 628 0 
L 628 4666 
z
" transform="scale(0.015625)"/>
     </defs>
     <use xlink:href="#DejaVuSans-43"/>
     <use xlink:href="#DejaVuSans-68" transform="translate(69.824219 0)"/>
     <use xlink:href="#DejaVuSans-61" transform="translate(133.203125 0)"/>
     <use xlink:href="#DejaVuSans-74" transform="translate(194.482422 0)"/>
     <use xlink:href="#DejaVuSans-20" transform="translate(233.691406 0)"/>
     <use xlink:href="#DejaVuSans-44" transform="translate(265.478516 0)"/>
     <use xlink:href="#DejaVuSans-42" transform="translate(342.480469 0)"/>
    </g>
   </g>
   <g id="text_7">
    <!-- Code DB -->
    <g style="fill: #ffffff" transform="translate(186.408906 465.80585) scale(0.1 -0.1)">
     <use xlink:href="#DejaVuSans-43"/>
     <use xlink:href="#DejaVuSans-6f" transform="translate(69.824219 0)"/>
     <use xlink:href="#DejaVuSans-64" transform="translate(131.005859 0)"/>
     <use xlink:href="#DejaVuSans-65" transform="translate(194.482422 0)"/>
     <use xlink:href="#DejaVuSans-20" transform="translate(256.005859 0)"/>
     <use xlink:href="#DejaVuSans-44" transform="translate(287.792969 0)"/>
     <use xlink:href="#DejaVuSans-42" transform="translate(364.794922 0)"/>
    </g>
   </g>
   <g id="text_8">
    <!-- Image DB -->
    <g style="fill: #ffffff" transform="translate(250.510313 465.80585) scale(0.1 -0.1)">
     <use xlink:href="#DejaVuSans-49"/>
     <use xlink:href="#DejaVuSans-6d" transform="translate(29.492188 0)"/>
     <use xlink:href="#DejaVuSans-61" transform="translate(126.904297 0)"/>
     <use xlink:href="#DejaVuSans-67" transform="translate(188.183594 0)"/>
     <use xlink:href="#DejaVuSans-65" transform="translate(251.660156 0)"/>
     <use xlink:href="#DejaVuSans-20" transform="translate(313.183594 0)"/>
     <use xlink:href="#DejaVuSans-44" transform="translate(344.970703 0)"/>
     <use xlink:href="#DejaVuSans-42" transform="translate(421.972656 0)"/>
    </g>
   </g>
   <g id="text_9">
    <!-- Cache -->
    <g style="fill: #ffffff" transform="translate(393.41 288.39785) scale(0.1 -0.1)">
     <use xlink:href="#DejaVuSans-43"/>
     <use xlink:href="#DejaVuSans-61" transform="translate(69.824219 0)"/>
     <use xlink:href="#DejaVuSans-63" transform="translate(131.103516 0)"/>
     <use xlink:href="#DejaVuSans-68" transform="translate(186.083984 0)"/>
     <use xlink:href="#DejaVuSans-65" transform="translate(249.462891 0)"/>
    </g>
   </g>
   <g id="text_10">
    <!-- File Storage -->
    <g style="fill: #ffffff" transform="translate(446.398906 377.10185) scale(0.1 -0.1)">
     <defs>
      <path id="DejaVuSans-46" d="M 628 4666 
L 3309 4666 
L 3309 4134 
L 1259 4134 
L 1259 2759 
L 3109 2759 
L 3109 2228 
L 1259 2228 
L 1259 0 
L 628 0 
L 628 4666 
z
" transform="scale(0.015625)"/>
     </defs>
     <use xlink:href="#DejaVuSans-46"/>
     <use xlink:href="#DejaVuSans-69" transform="translate(50.269531 0)"/>
     <use xlink:href="#DejaVuSans-6c" transform="translate(78.052734 0)"/>
     <use xlink:href="#DejaVuSans-65" transform="translate(105.835938 0)"/>
     <use xlink:href="#DejaVuSans-20" transform="translate(167.359375 0)"/>
     <use xlink:href="#DejaVuSans-53" transform="translate(199.146484 0)"/>
     <use xlink:href="#DejaVuSans-74" transform="translate(262.623047 0)"/>
     <use xlink:href="#DejaVuSans-6f" transform="translate(301.832031 0)"/>
     <use xlink:href="#DejaVuSans-72" transform="translate(363.013672 0)"/>
     <use xlink:href="#DejaVuSans-61" transform="translate(404.126953 0)"/>
     <use xlink:href="#DejaVuSans-67" transform="translate(465.40625 0)"/>
     <use xlink:href="#DejaVuSans-65" transform="translate(528.882812 0)"/>
    </g>
   </g>
   <g id="text_11">
    <!-- ML Models -->
    <g style="fill: #ffffff" transform="translate(516.572969 288.39785) scale(0.1 -0.1)">
     <defs>
      <path id="DejaVuSans-4d" d="M 628 4666 
L 1569 4666 
L 2759 1491 
L 3956 4666 
L 4897 4666 
L 4897 0 
L 4281 0 
L 4281 4097 
L 3078 897 
L 2444 897 
L 1241 4097 
L 1241 0 
L 628 0 
L 628 4666 
z
" transform="scale(0.015625)"/>
      <path id="DejaVuSans-4c" d="M 628 4666 
L 1259 4666 
L 1259 531 
L 3531 531 
L 3531 0 
L 628 0 
L 628 4666 
z
" transform="scale(0.015625)"/>
      <path id="DejaVuSans-73" d="M 2834 3397 
L 2834 2853 
Q 2591 2978 2328 3040 
Q 2066 3103 1784 3103 
Q 1356 3103 1142 2972 
Q 928 2841 928 2578 
Q 928 2378 1081 2264 
Q 1234 2150 1697 2047 
L 1894 2003 
Q 2506 1872 2764 1633 
Q 3022 1394 3022 966 
Q 3022 478 2636 193 
Q 2250 -91 1575 -91 
Q 1294 -91 989 -36 
Q 684 19 347 128 
L 347 722 
Q 666 556 975 473 
Q 1284 391 1588 391 
Q 1994 391 2212 530 
Q 2431 669 2431 922 
Q 2431 1156 2273 1281 
Q 2116 1406 1581 1522 
L 1381 1569 
Q 847 1681 609 1914 
Q 372 2147 372 2553 
Q 372 3047 722 3315 
Q 1072 3584 1716 3584 
Q 2034 3584 2315 3537 
Q 2597 3491 2834 3397 
z
" transform="scale(0.015625)"/>
     </defs>
     <use xlink:href="#DejaVuSans-4d"/>
     <use xlink:href="#DejaVuSans-4c" transform="translate(86.279297 0)"/>
     <use xlink:href="#DejaVuSans-20" transform="translate(141.992188 0)"/>
     <use xlink:href="#DejaVuSans-4d" transform="translate(173.779297 0)"/>
     <use xlink:href="#DejaVuSans-6f" transform="translate(260.058594 0)"/>
     <use xlink:href="#DejaVuSans-64" transform="translate(321.240234 0)"/>
     <use xlink:href="#DejaVuSans-65" transform="translate(384.716797 0)"/>
     <use xlink:href="#DejaVuSans-6c" transform="translate(446.240234 0)"/>
     <use xlink:href="#DejaVuSans-73" transform="translate(474.023438 0)"/>
    </g>
   </g>
   <g id="text_12">
    <!-- CROD Data Flow -->
    <g style="fill: #ffffff" transform="translate(259.4375 22.396875) scale(0.2 -0.2)">
     <defs>
      <path id="DejaVuSans-52" d="M 2841 2188 
Q 3044 2119 3236 1894 
Q 3428 1669 3622 1275 
L 4263 0 
L 3584 0 
L 2988 1197 
Q 2756 1666 2539 1819 
Q 2322 1972 1947 1972 
L 1259 1972 
L 1259 0 
L 628 0 
L 628 4666 
L 2053 4666 
Q 2853 4666 3247 4331 
Q 3641 3997 3641 3322 
Q 3641 2881 3436 2590 
Q 3231 2300 2841 2188 
z
M 1259 4147 
L 1259 2491 
L 2053 2491 
Q 2509 2491 2742 2702 
Q 2975 2913 2975 3322 
Q 2975 3731 2742 3939 
Q 2509 4147 2053 4147 
L 1259 4147 
z
" transform="scale(0.015625)"/>
      <path id="DejaVuSans-4f" d="M 2522 4238 
Q 1834 4238 1429 3725 
Q 1025 3213 1025 2328 
Q 1025 1447 1429 934 
Q 1834 422 2522 422 
Q 3209 422 3611 934 
Q 4013 1447 4013 2328 
Q 4013 3213 3611 3725 
Q 3209 4238 2522 4238 
z
M 2522 4750 
Q 3503 4750 4090 4092 
Q 4678 3434 4678 2328 
Q 4678 1225 4090 567 
Q 3503 -91 2522 -91 
Q 1538 -91 948 565 
Q 359 1222 359 2328 
Q 359 3434 948 4092 
Q 1538 4750 2522 4750 
z
" transform="scale(0.015625)"/>
     </defs>
     <use xlink:href="#DejaVuSans-43"/>
     <use xlink:href="#DejaVuSans-52" transform="translate(69.824219 0)"/>
     <use xlink:href="#DejaVuSans-4f" transform="translate(139.306641 0)"/>
     <use xlink:href="#DejaVuSans-44" transform="translate(218.017578 0)"/>
     <use xlink:href="#DejaVuSans-20" transform="translate(295.019531 0)"/>
     <use xlink:href="#DejaVuSans-44" transform="translate(326.806641 0)"/>
     <use xlink:href="#DejaVuSans-61" transform="translate(403.808594 0)"/>
     <use xlink:href="#DejaVuSans-74" transform="translate(465.087891 0)"/>
     <use xlink:href="#DejaVuSans-61" transform="translate(504.296875 0)"/>
     <use xlink:href="#DejaVuSans-20" transform="translate(565.576172 0)"/>
     <use xlink:href="#DejaVuSans-46" transform="translate(597.363281 0)"/>
     <use xlink:href="#DejaVuSans-6c" transform="translate(654.882812 0)"/>
     <use xlink:href="#DejaVuSans-6f" transform="translate(682.666016 0)"/>
     <use xlink:href="#DejaVuSans-77" transform="translate(743.847656 0)"/>
    </g>
   </g>
  </g>
 </g>
 <defs>
  <clipPath id="p663c10fdbc">
   <rect x="7.2" y="28.396875" width="669.6" height="443.52"/>
  </clipPath>
 </defs>
</svg>
